<mxfile host="app.diagrams.net" modified="2021-05-27T07:32:43.082Z" agent="5.0 (Windows NT 10.0; Win64; x64) AppleWebKit/537.36 (KHTML, like Gecko) Chrome/90.0.4430.212 Safari/537.36" etag="VcYM3VK6HcklNnY9RvGj" version="14.7.1" type="github">
  <diagram id="DqvLxxbkgls3zVLwa2Ui" name="Page-1">
    <mxGraphModel dx="2249" dy="1931" grid="1" gridSize="10" guides="1" tooltips="1" connect="1" arrows="1" fold="1" page="1" pageScale="1" pageWidth="827" pageHeight="1169" math="0" shadow="0">
      <root>
        <mxCell id="0" />
        <mxCell id="1" parent="0" />
        <mxCell id="g6jKSNpaKEoggSbXmEaC-20" value="" style="rounded=0;whiteSpace=wrap;html=1;" vertex="1" parent="1">
          <mxGeometry x="-80" y="180" width="250" height="310" as="geometry" />
        </mxCell>
        <mxCell id="g6jKSNpaKEoggSbXmEaC-12" value="" style="rounded=0;whiteSpace=wrap;html=1;" vertex="1" parent="1">
          <mxGeometry x="560" y="180" width="250" height="310" as="geometry" />
        </mxCell>
        <mxCell id="g6jKSNpaKEoggSbXmEaC-6" value="" style="rounded=0;whiteSpace=wrap;html=1;" vertex="1" parent="1">
          <mxGeometry x="250" y="180" width="250" height="310" as="geometry" />
        </mxCell>
        <mxCell id="g6jKSNpaKEoggSbXmEaC-3" value="" style="edgeStyle=orthogonalEdgeStyle;rounded=0;orthogonalLoop=1;jettySize=auto;html=1;" edge="1" parent="1" source="g6jKSNpaKEoggSbXmEaC-1" target="g6jKSNpaKEoggSbXmEaC-2">
          <mxGeometry relative="1" as="geometry" />
        </mxCell>
        <mxCell id="g6jKSNpaKEoggSbXmEaC-1" value="发送mqtt message" style="ellipse;whiteSpace=wrap;html=1;aspect=fixed;" vertex="1" parent="1">
          <mxGeometry y="230" width="80" height="80" as="geometry" />
        </mxCell>
        <mxCell id="g6jKSNpaKEoggSbXmEaC-9" value="" style="edgeStyle=orthogonalEdgeStyle;rounded=0;orthogonalLoop=1;jettySize=auto;html=1;" edge="1" parent="1" source="g6jKSNpaKEoggSbXmEaC-2" target="g6jKSNpaKEoggSbXmEaC-8">
          <mxGeometry relative="1" as="geometry" />
        </mxCell>
        <mxCell id="g6jKSNpaKEoggSbXmEaC-2" value="根据message修改ngrok.yml配置文件" style="whiteSpace=wrap;html=1;" vertex="1" parent="1">
          <mxGeometry x="310" y="240" width="120" height="60" as="geometry" />
        </mxCell>
        <mxCell id="g6jKSNpaKEoggSbXmEaC-5" style="edgeStyle=orthogonalEdgeStyle;rounded=0;orthogonalLoop=1;jettySize=auto;html=1;" edge="1" parent="1" source="g6jKSNpaKEoggSbXmEaC-4">
          <mxGeometry relative="1" as="geometry">
            <mxPoint x="215" y="270" as="targetPoint" />
            <Array as="points">
              <mxPoint x="215" y="170" />
              <mxPoint x="215" y="170" />
            </Array>
          </mxGeometry>
        </mxCell>
        <mxCell id="g6jKSNpaKEoggSbXmEaC-4" value="&lt;h1&gt;message&lt;/h1&gt;&lt;div&gt;&lt;pre class=&quot;cm-s-default&quot; style=&quot;box-sizing: border-box ; margin-top: 0px ; margin-bottom: 0px ; overflow: visible ; border-radius: 0px ; border-width: 0px ; background: rgb(249 , 249 , 249) ; overflow-wrap: normal ; line-height: inherit ; z-index: 2 ; position: relative ; padding: 0px ; word-break: break-word&quot;&gt;&lt;span class=&quot;lake-preview-line&quot; style=&quot;box-sizing: border-box ; display: flex&quot;&gt;&lt;span class=&quot;lake-preview-codeblock-content&quot; style=&quot;box-sizing: border-box&quot;&gt;&lt;font color=&quot;#595959&quot; face=&quot;Helvetica&quot;&gt;&lt;span style=&quot;font-size: 13px ; letter-spacing: 0.12px&quot;&gt;{&lt;br&gt;  &quot;server&quot;: &quot;1.1.1.1:4443&quot;, &lt;br&gt;  &quot;key&quot;: &quot;d38d0eb3-7837-4e0c-a857-1e1f3ab4e9d0&quot;, &lt;br&gt;  &quot;tunnel&quot;:{&lt;br&gt;    &quot;protocol&quot;: &quot;https&quot;，&lt;br&gt;    &quot;port&quot;: 443, &lt;br&gt;  }&lt;br&gt;}&lt;/span&gt;&lt;/font&gt;&lt;font color=&quot;#595959&quot; face=&quot;inherit&quot;&gt;&lt;span style=&quot;letter-spacing: 0.12px&quot;&gt;&lt;br&gt;&lt;/span&gt;&lt;/font&gt;&lt;/span&gt;&lt;/span&gt;&lt;/pre&gt;&lt;/div&gt;" style="text;html=1;spacing=5;spacingTop=-20;whiteSpace=wrap;overflow=hidden;rounded=0;fillColor=#f5f5f5;strokeColor=#666666;fontColor=#333333;" vertex="1" parent="1">
          <mxGeometry x="-80" y="-40" width="330" height="190" as="geometry" />
        </mxCell>
        <mxCell id="g6jKSNpaKEoggSbXmEaC-7" value="设备" style="text;html=1;strokeColor=none;fillColor=none;align=center;verticalAlign=middle;whiteSpace=wrap;rounded=0;" vertex="1" parent="1">
          <mxGeometry x="350" y="190" width="40" height="20" as="geometry" />
        </mxCell>
        <mxCell id="g6jKSNpaKEoggSbXmEaC-18" value="" style="edgeStyle=orthogonalEdgeStyle;rounded=0;orthogonalLoop=1;jettySize=auto;html=1;" edge="1" parent="1" source="g6jKSNpaKEoggSbXmEaC-8" target="g6jKSNpaKEoggSbXmEaC-17">
          <mxGeometry relative="1" as="geometry" />
        </mxCell>
        <mxCell id="g6jKSNpaKEoggSbXmEaC-8" value="启动ngrok客户端连接ngrok服务器" style="whiteSpace=wrap;html=1;" vertex="1" parent="1">
          <mxGeometry x="310" y="380" width="120" height="60" as="geometry" />
        </mxCell>
        <mxCell id="g6jKSNpaKEoggSbXmEaC-15" value="ngrok服务器" style="text;html=1;strokeColor=none;fillColor=none;align=center;verticalAlign=middle;whiteSpace=wrap;rounded=0;" vertex="1" parent="1">
          <mxGeometry x="660" y="190" width="40" height="20" as="geometry" />
        </mxCell>
        <mxCell id="g6jKSNpaKEoggSbXmEaC-17" value="建立连接，返回代理url" style="whiteSpace=wrap;html=1;" vertex="1" parent="1">
          <mxGeometry x="620" y="380" width="120" height="60" as="geometry" />
        </mxCell>
        <mxCell id="g6jKSNpaKEoggSbXmEaC-19" value="" style="endArrow=classic;html=1;" edge="1" parent="1">
          <mxGeometry width="50" height="50" relative="1" as="geometry">
            <mxPoint x="300" y="430" as="sourcePoint" />
            <mxPoint x="80" y="430" as="targetPoint" />
          </mxGeometry>
        </mxCell>
        <mxCell id="g6jKSNpaKEoggSbXmEaC-21" value="" style="endArrow=classic;html=1;" edge="1" parent="1">
          <mxGeometry width="50" height="50" relative="1" as="geometry">
            <mxPoint x="610" y="430" as="sourcePoint" />
            <mxPoint x="450" y="430" as="targetPoint" />
          </mxGeometry>
        </mxCell>
        <mxCell id="g6jKSNpaKEoggSbXmEaC-22" value="接受mqtt message" style="ellipse;whiteSpace=wrap;html=1;aspect=fixed;" vertex="1" parent="1">
          <mxGeometry y="380" width="80" height="80" as="geometry" />
        </mxCell>
        <mxCell id="g6jKSNpaKEoggSbXmEaC-26" style="edgeStyle=orthogonalEdgeStyle;rounded=0;orthogonalLoop=1;jettySize=auto;html=1;" edge="1" parent="1" source="g6jKSNpaKEoggSbXmEaC-24">
          <mxGeometry relative="1" as="geometry">
            <mxPoint x="530" y="430" as="targetPoint" />
            <Array as="points">
              <mxPoint x="530" y="530" />
              <mxPoint x="530" y="530" />
            </Array>
          </mxGeometry>
        </mxCell>
        <mxCell id="g6jKSNpaKEoggSbXmEaC-24" value="&lt;h1&gt;message&lt;/h1&gt;&lt;div&gt;&lt;pre class=&quot;cm-s-default&quot; style=&quot;box-sizing: border-box ; margin-top: 0px ; margin-bottom: 0px ; overflow: visible ; border-radius: 0px ; border-width: 0px ; background: rgb(249 , 249 , 249) ; overflow-wrap: normal ; line-height: inherit ; z-index: 2 ; position: relative ; padding: 0px ; word-break: break-word&quot;&gt;&lt;span class=&quot;lake-preview-line&quot; style=&quot;box-sizing: border-box ; display: flex&quot;&gt;&lt;span class=&quot;lake-preview-codeblock-content&quot; style=&quot;box-sizing: border-box&quot;&gt;&lt;font color=&quot;#595959&quot; face=&quot;Helvetica&quot;&gt;&lt;span style=&quot;font-size: 13px ; letter-spacing: 0.12px&quot;&gt;{&lt;br&gt;  &quot;url&quot;: &quot;&lt;/span&gt;&lt;span style=&quot;font-size: 13px ; letter-spacing: 0.12px&quot;&gt;http://hu.hailong.com/xxx?token=xxx&lt;/span&gt;&lt;/font&gt;&lt;span style=&quot;font-size: 13px ; letter-spacing: 0.12px ; color: rgb(89 , 89 , 89) ; font-family: &amp;#34;helvetica&amp;#34;&quot;&gt;&quot;&lt;br/&gt;}&lt;/span&gt;&lt;/span&gt;&lt;span class=&quot;lake-preview-codeblock-content&quot; style=&quot;box-sizing: border-box&quot;&gt;&lt;span style=&quot;font-size: 13px ; letter-spacing: 0.12px ; color: rgb(89 , 89 , 89) ; font-family: &amp;#34;helvetica&amp;#34;&quot;&gt;&lt;br&gt;&lt;/span&gt;&lt;/span&gt;&lt;span class=&quot;lake-preview-codeblock-content&quot; style=&quot;box-sizing: border-box&quot;&gt;&lt;font color=&quot;#595959&quot; face=&quot;Helvetica&quot;&gt;&lt;span style=&quot;font-size: 13px ; letter-spacing: 0.12px&quot;&gt;  &lt;/span&gt;&lt;/font&gt;&lt;font color=&quot;#595959&quot; face=&quot;inherit&quot;&gt;&lt;span style=&quot;letter-spacing: 0.12px&quot;&gt;&lt;br&gt;&lt;/span&gt;&lt;/font&gt;&lt;/span&gt;&lt;/span&gt;&lt;/pre&gt;&lt;/div&gt;" style="text;html=1;spacing=5;spacingTop=-20;whiteSpace=wrap;overflow=hidden;rounded=0;fillColor=#f5f5f5;strokeColor=#666666;fontColor=#333333;" vertex="1" parent="1">
          <mxGeometry x="510" y="510" width="300" height="120" as="geometry" />
        </mxCell>
        <mxCell id="g6jKSNpaKEoggSbXmEaC-27" value="平台" style="text;html=1;strokeColor=none;fillColor=none;align=center;verticalAlign=middle;whiteSpace=wrap;rounded=0;" vertex="1" parent="1">
          <mxGeometry x="20" y="190" width="40" height="20" as="geometry" />
        </mxCell>
      </root>
    </mxGraphModel>
  </diagram>
</mxfile>
